<svg width="101" height="16" viewBox="0 0 101 16" fill="none" xmlns="http://www.w3.org/2000/svg">
<path d="M0.965909 2.01705V0.454545H11.875V2.01705H7.30114V15H5.53977V2.01705H0.965909ZM26.2607 7.72727C26.2607 9.26136 25.9837 10.5871 25.4297 11.7045C24.8757 12.822 24.1158 13.6837 23.1499 14.2898C22.1839 14.8958 21.0807 15.1989 19.8402 15.1989C18.5997 15.1989 17.4964 14.8958 16.5305 14.2898C15.5646 13.6837 14.8047 12.822 14.2507 11.7045C13.6967 10.5871 13.4197 9.26136 13.4197 7.72727C13.4197 6.19318 13.6967 4.86742 14.2507 3.75C14.8047 2.63258 15.5646 1.77083 16.5305 1.16477C17.4964 0.558712 18.5997 0.255681 19.8402 0.255681C21.0807 0.255681 22.1839 0.558712 23.1499 1.16477C24.1158 1.77083 24.8757 2.63258 25.4297 3.75C25.9837 4.86742 26.2607 6.19318 26.2607 7.72727ZM24.5561 7.72727C24.5561 6.4678 24.3454 5.40483 23.924 4.53835C23.5073 3.67188 22.9415 3.0161 22.2266 2.57102C21.5163 2.12595 20.7209 1.90341 19.8402 1.90341C18.9595 1.90341 18.1617 2.12595 17.4467 2.57102C16.7365 3.0161 16.1707 3.67188 15.7493 4.53835C15.3326 5.40483 15.1243 6.4678 15.1243 7.72727C15.1243 8.98674 15.3326 10.0497 15.7493 10.9162C16.1707 11.7827 16.7365 12.4384 17.4467 12.8835C18.1617 13.3286 18.9595 13.5511 19.8402 13.5511C20.7209 13.5511 21.5163 13.3286 22.2266 12.8835C22.9415 12.4384 23.5073 11.7827 23.924 10.9162C24.3454 10.0497 24.5561 8.98674 24.5561 7.72727ZM33.7109 15H29.2223V0.454545H33.9098C35.3208 0.454545 36.5282 0.745738 37.532 1.32812C38.5357 1.90578 39.3052 2.73674 39.8402 3.82102C40.3752 4.90057 40.6428 6.19318 40.6428 7.69886C40.6428 9.21401 40.3729 10.5185 39.8331 11.6122C39.2933 12.7012 38.5073 13.5393 37.4751 14.1264C36.4429 14.7088 35.1882 15 33.7109 15ZM30.9837 13.4375H33.5973C34.8 13.4375 35.7966 13.2055 36.5874 12.7415C37.3781 12.2775 37.9676 11.617 38.3558 10.7599C38.7441 9.90294 38.9382 8.88258 38.9382 7.69886C38.9382 6.52462 38.7464 5.51373 38.3629 4.66619C37.9794 3.81392 37.4065 3.16051 36.6442 2.70597C35.8819 2.24669 34.9325 2.01705 33.7962 2.01705H30.9837V13.4375ZM55.87 7.72727C55.87 9.26136 55.593 10.5871 55.0391 11.7045C54.4851 12.822 53.7251 13.6837 52.7592 14.2898C51.7933 14.8958 50.6901 15.1989 49.4496 15.1989C48.209 15.1989 47.1058 14.8958 46.1399 14.2898C45.174 13.6837 44.4141 12.822 43.8601 11.7045C43.3061 10.5871 43.0291 9.26136 43.0291 7.72727C43.0291 6.19318 43.3061 4.86742 43.8601 3.75C44.4141 2.63258 45.174 1.77083 46.1399 1.16477C47.1058 0.558712 48.209 0.255681 49.4496 0.255681C50.6901 0.255681 51.7933 0.558712 52.7592 1.16477C53.7251 1.77083 54.4851 2.63258 55.0391 3.75C55.593 4.86742 55.87 6.19318 55.87 7.72727ZM54.1655 7.72727C54.1655 6.4678 53.9548 5.40483 53.5334 4.53835C53.1167 3.67188 52.5509 3.0161 51.8359 2.57102C51.1257 2.12595 50.3303 1.90341 49.4496 1.90341C48.5689 1.90341 47.7711 2.12595 47.0561 2.57102C46.3459 3.0161 45.7801 3.67188 45.3587 4.53835C44.942 5.40483 44.7337 6.4678 44.7337 7.72727C44.7337 8.98674 44.942 10.0497 45.3587 10.9162C45.7801 11.7827 46.3459 12.4384 47.0561 12.8835C47.7711 13.3286 48.5689 13.5511 49.4496 13.5511C50.3303 13.5511 51.1257 13.3286 51.8359 12.8835C52.5509 12.4384 53.1167 11.7827 53.5334 10.9162C53.9548 10.0497 54.1655 8.98674 54.1655 7.72727ZM65.0533 15H63.2067L68.5476 0.454545H70.3658L75.7067 15H73.8601L69.5135 2.75568H69.3999L65.0533 15ZM65.7351 9.31818H73.1783V10.8807H65.7351V9.31818ZM77.9723 15V0.454545H82.8871C84.0282 0.454545 84.9609 0.660511 85.6854 1.07244C86.4145 1.47964 86.9543 2.03125 87.3047 2.72727C87.6551 3.4233 87.8303 4.19981 87.8303 5.05682C87.8303 5.91383 87.6551 6.69271 87.3047 7.39347C86.959 8.09422 86.424 8.65294 85.6996 9.0696C84.9751 9.48153 84.0471 9.6875 82.9155 9.6875H79.3928V8.125H82.8587C83.6399 8.125 84.2673 7.99006 84.7408 7.72017C85.2143 7.45028 85.5575 7.0857 85.7706 6.62642C85.9884 6.16241 86.0973 5.6392 86.0973 5.05682C86.0973 4.47443 85.9884 3.9536 85.7706 3.49432C85.5575 3.03504 85.2119 2.67519 84.7337 2.41477C84.2554 2.14962 83.621 2.01705 82.8303 2.01705H79.7337V15H77.9723ZM90.6676 15V0.454545H95.5824C96.7235 0.454545 97.6563 0.660511 98.3807 1.07244C99.1098 1.47964 99.6496 2.03125 100 2.72727C100.35 3.4233 100.526 4.19981 100.526 5.05682C100.526 5.91383 100.35 6.69271 100 7.39347C99.6544 8.09422 99.1193 8.65294 98.3949 9.0696C97.6705 9.48153 96.7424 9.6875 95.6108 9.6875H92.0881V8.125H95.554C96.3352 8.125 96.9626 7.99006 97.4361 7.72017C97.9096 7.45028 98.2528 7.0857 98.4659 6.62642C98.6837 6.16241 98.7926 5.6392 98.7926 5.05682C98.7926 4.47443 98.6837 3.9536 98.4659 3.49432C98.2528 3.03504 97.9072 2.67519 97.429 2.41477C96.9508 2.14962 96.3163 2.01705 95.5256 2.01705H92.429V15H90.6676Z" fill="white"/>
</svg>
