<svg width="67" height="19" viewBox="0 0 67 19" fill="none" xmlns="http://www.w3.org/2000/svg">
<path d="M0.488636 2.8125L0.863636 0.545454H14.3722L13.9972 2.8125H8.55114L6.02841 18H3.40341L5.92614 2.8125H0.488636ZM30.2947 9.44318C29.9879 11.2784 29.3913 12.8523 28.505 14.1648C27.6243 15.4773 26.5447 16.4858 25.2663 17.1903C23.9936 17.8892 22.6186 18.2386 21.1413 18.2386C19.6016 18.2386 18.2862 17.8722 17.1953 17.1392C16.1101 16.4006 15.3317 15.3523 14.8601 13.9943C14.3885 12.6307 14.3089 11.0057 14.6214 9.11932C14.9283 7.28409 15.522 5.71023 16.4027 4.39773C17.2891 3.07955 18.3714 2.06818 19.6499 1.36364C20.9339 0.659091 22.3203 0.306818 23.8089 0.306818C25.3374 0.306818 26.6413 0.676136 27.7209 1.41477C28.8061 2.14773 29.5845 3.19886 30.0561 4.56818C30.5277 5.93182 30.6072 7.55682 30.2947 9.44318ZM27.7294 9.11932C27.9624 7.72727 27.9339 6.55682 27.6442 5.60795C27.3601 4.65341 26.8743 3.93182 26.1868 3.44318C25.4993 2.95455 24.6697 2.71023 23.6982 2.71023C22.6641 2.71023 21.6953 2.97159 20.7919 3.49432C19.8942 4.01704 19.1271 4.77841 18.4908 5.77841C17.8544 6.77841 17.4197 8 17.1868 9.44318C16.9482 10.8352 16.9737 12.0057 17.2635 12.9545C17.5533 13.9034 18.0419 14.6222 18.7294 15.1108C19.4226 15.5937 20.255 15.8352 21.2266 15.8352C22.255 15.8352 23.218 15.5767 24.1158 15.0597C25.0192 14.5369 25.7891 13.7784 26.4254 12.7841C27.0618 11.7841 27.4964 10.5625 27.7294 9.11932ZM37.8821 18H32.1548L35.0526 0.545454H40.8054C42.5213 0.545454 43.9389 0.903409 45.0582 1.61932C46.1776 2.32954 46.9616 3.34659 47.4105 4.67045C47.8594 5.98864 47.9304 7.56534 47.6236 9.40057C47.3281 11.196 46.7486 12.7358 45.8849 14.0199C45.027 15.2983 43.9219 16.2812 42.5696 16.9688C41.2173 17.6562 39.6548 18 37.8821 18ZM35.1804 15.6989H37.9929C39.3224 15.6989 40.473 15.4403 41.4446 14.9233C42.4219 14.4062 43.2145 13.6562 43.8224 12.6733C44.4304 11.6903 44.8509 10.4943 45.0838 9.08523C45.3111 7.74432 45.2912 6.6108 45.0241 5.68466C44.7571 4.75284 44.2401 4.0483 43.473 3.57102C42.706 3.08807 41.6861 2.84659 40.4134 2.84659H37.3026L35.1804 15.6989ZM66.0604 9.44318C65.7536 11.2784 65.157 12.8523 64.2706 14.1648C63.3899 15.4773 62.3104 16.4858 61.032 17.1903C59.7592 17.8892 58.3842 18.2386 56.907 18.2386C55.3672 18.2386 54.0518 17.8722 52.9609 17.1392C51.8757 16.4006 51.0973 15.3523 50.6257 13.9943C50.1541 12.6307 50.0746 11.0057 50.3871 9.11932C50.6939 7.28409 51.2876 5.71023 52.1683 4.39773C53.0547 3.07955 54.1371 2.06818 55.4155 1.36364C56.6996 0.659091 58.0859 0.306818 59.5746 0.306818C61.103 0.306818 62.407 0.676136 63.4865 1.41477C64.5717 2.14773 65.3501 3.19886 65.8217 4.56818C66.2933 5.93182 66.3729 7.55682 66.0604 9.44318ZM63.495 9.11932C63.728 7.72727 63.6996 6.55682 63.4098 5.60795C63.1257 4.65341 62.6399 3.93182 61.9524 3.44318C61.2649 2.95455 60.4354 2.71023 59.4638 2.71023C58.4297 2.71023 57.4609 2.97159 56.5575 3.49432C55.6598 4.01704 54.8928 4.77841 54.2564 5.77841C53.62 6.77841 53.1854 8 52.9524 9.44318C52.7138 10.8352 52.7393 12.0057 53.0291 12.9545C53.3189 13.9034 53.8075 14.6222 54.495 15.1108C55.1882 15.5937 56.0206 15.8352 56.9922 15.8352C58.0206 15.8352 58.9837 15.5767 59.8814 15.0597C60.7848 14.5369 61.5547 13.7784 62.1911 12.7841C62.8274 11.7841 63.2621 10.5625 63.495 9.11932Z" fill="white"/>
</svg>
